<svg version="1.1" id="Layer_1" xmlns="http://www.w3.org/2000/svg" xmlns:xlink="http://www.w3.org/1999/xlink" x="0px" y="0px"
	 viewBox="0 0 278 297" style="enable-background:new 0 0 278 297;" xml:space="preserve">
<style type="text/css">
	.st0{fill:#FFFFFF;}
</style>
<path class="st0" d="M268.7,100.5l-118-95c-0.2-0.2-0.5-0.4-0.7-0.6c-0.1-0.1-0.1-0.1-0.2-0.2c-0.4-0.3-0.9-0.6-1.4-0.9
	c-0.1,0-0.2-0.1-0.2-0.1c-0.5-0.3-0.9-0.6-1.4-0.8c0,0,0,0,0,0c-1.7-0.9-3.4-1.5-5.1-2c0,0,0,0,0,0c-0.6-0.2-1.2-0.3-1.8-0.4
	c0,0,0,0,0,0c-0.6-0.1-1.1-0.2-1.7-0.3c-0.1,0-0.1,0-0.2,0c-0.5-0.1-1-0.1-1.5-0.1c-0.1,0-0.2,0-0.2,0c-0.5,0-1.1,0-1.6,0
	c-0.1,0-0.2,0-0.3,0c-0.5,0-0.9,0-1.4,0.1c-0.1,0-0.2,0-0.3,0c-0.5,0.1-1,0.1-1.6,0.2c-0.1,0-0.2,0-0.3,0.1
	c-0.5,0.1-0.9,0.2-1.4,0.3c-0.1,0-0.2,0-0.3,0.1c-0.5,0.1-1.1,0.3-1.6,0.4c-0.1,0-0.1,0-0.2,0.1c-0.5,0.2-1,0.3-1.5,0.5
	c0,0-0.1,0-0.1,0c-1.1,0.4-2.2,1-3.2,1.6c0,0,0,0,0,0c-1,0.6-2,1.3-3,2c0,0,0,0-0.1,0.1c-0.5,0.4-0.9,0.8-1.4,1.2c0,0,0,0,0,0
	L8,108.7c-10.1,9.4-10.7,25.2-1.3,35.3c9.4,10.1,25.2,10.7,35.3,1.3l68-63.1V272c0,13.8,11.2,25,25,25s25-11.2,25-25V77.2l77.3,62.3
	c4.6,3.7,10.2,5.5,15.7,5.5c7.3,0,14.6-3.2,19.5-9.3C281.1,124.9,279.4,109.2,268.7,100.5z"/>
</svg>
