<svg version="1.1" id="Layer_1" xmlns="http://www.w3.org/2000/svg" xmlns:xlink="http://www.w3.org/1999/xlink" x="0px" y="0px"
	 viewBox="0 0 380.4 457.2" style="enable-background:new 0 0 380.4 457.2;" xml:space="preserve">
<style type="text/css">
	.st0{fill:#FFFFFF;}
</style>
<g>
	<path class="st0" d="M164.5,44.2c-16.7,0-29.3,2.4-37.8,7.3c-8.5,4.8-12.2,13.3-11.1,25.3l8.2,78.4c0.5,3.9,0.7,7.8,0.7,11.7
		c0,18.7-5.4,32.9-16.3,42.5c-10.8,9.6-26.5,16-46.9,19.3c21.2,3.4,37,9.7,47.5,18.8c10.5,9.1,15.7,23.1,15.7,42
		c0,3.9-0.2,8.1-0.7,12.6l-8.2,78.4c-0.2,0.9-0.2,2.2-0.2,3.7c0,10.6,4.2,18.1,12.8,22.3c8.5,4.3,20.6,6.4,36.4,6.4v44.2
		c-35.7,0-62.4-5.3-80-15.8c-17.6-10.5-26.4-28.2-26.4-53c0-4.2,0.2-8.5,0.7-12.9l7.7-74.6c0.3-3.4,0.5-5.8,0.5-7
		c0-14.3-5.5-24.6-16.4-30.9c-10.9-6.2-27.8-9.4-50.5-9.4v-50.1c22.6,0,39.4-3.1,50.4-9.4c11-6.2,16.5-16.5,16.5-30.7
		c0-1.6-0.2-3.9-0.5-7l-7.7-74.6c-0.5-4.7-0.7-9.1-0.7-13.3c0-24.8,8.8-42.4,26.4-52.9C102.1,5.2,128.8,0,164.5,0V44.2z"/>
	<path class="st0" d="M215.9,0c35.7,0,62.4,5.3,80,15.8c17.6,10.5,26.4,28.2,26.4,53c0,4.1-0.2,8.3-0.7,12.9l-7.7,74.9
		c-0.3,3.1-0.5,5.3-0.5,6.6c0,14.2,5.6,24.5,16.8,30.9c11.2,6.4,27.9,9.6,50.1,9.6v50.1c-22.2,0-38.8,3.2-50.1,9.6
		c-11.2,6.4-16.8,16.8-16.8,31.1c0,1.3,0.2,3.4,0.5,6.6l7.7,74.4c0.5,4.7,0.7,9.1,0.7,13.3c0,24.8-8.8,42.4-26.4,52.9
		c-17.6,10.4-44.3,15.7-80,15.7V413c16.7,0,29.3-2.4,37.8-7.3c8.5-4.8,12.2-13.3,11.1-25.3l-8.2-78.4c-0.5-4.2-0.7-8.2-0.7-11.9
		c0-19,5.5-33.2,16.5-42.6c11-9.4,27.3-15.6,48.8-18.7c-22-3.4-38.4-9.8-49.1-19.2c-10.8-9.4-16.1-23.5-16.1-42.4
		c0-3.9,0.2-8,0.7-12.2l8.2-78.4c0.2-0.9,0.2-2.2,0.2-3.7c0-10.6-4.3-18.1-12.8-22.3c-8.5-4.3-20.6-6.4-36.4-6.4V0z"/>
</g>
</svg>
