<svg xmlns="http://www.w3.org/2000/svg" viewBox="0 0 2060 1386"><polygon points="1250.66 0 0 1250.66 0 1317.92 1317.92 0 1250.66 0" style="fill:none"/><polygon points="921.63 0 0 921.63 0 988.88 988.88 0 921.63 0" style="fill:none"/><polygon points="1140.99 0 0 1140.99 0 1208.24 1208.24 0 1140.99 0" style="fill:none"/><polygon points="153.89 0 0 153.89 0 221.14 221.14 0 153.89 0" style="fill:none"/><polygon points="44.21 0 0 44.21 0 111.46 111.46 0 44.21 0" style="fill:none"/><polygon points="0 0 0 1.79 1.79 0 0 0" style="fill:none"/><polygon points="811.96 0 0 811.96 0 879.21 879.21 0 811.96 0" style="fill:none"/><polygon points="2060 1274.54 1948.54 1386 2015.79 1386 2060 1341.79 2060 1274.54" style="fill:none"/><polygon points="373.25 0 0 373.25 0 440.5 440.5 0 373.25 0" style="fill:none"/><polygon points="263.57 0 0 263.57 0 330.82 330.82 0 263.57 0" style="fill:none"/><polygon points="2060 1164.86 1838.86 1386 1906.11 1386 2060 1232.11 2060 1164.86" style="fill:none"/><polygon points="592.6 0 0 592.6 0 659.85 659.85 0 592.6 0" style="fill:none"/><polygon points="702.28 0 0 702.28 0 769.53 769.53 0 702.28 0" style="fill:none"/><polygon points="482.92 0 0 482.92 0 550.17 550.17 0 482.92 0" style="fill:none"/><polygon points="2058.21 1386 2060 1386 2060 1384.21 2058.21 1386" style="fill:none"/><polygon points="1031.31 0 0 1031.31 0 1098.56 1098.56 0 1031.31 0" style="fill:none"/><polygon points="2060 835.83 1509.83 1386 1577.08 1386 2060 903.08 2060 835.83" style="fill:none"/><polygon points="2060 177.76 851.76 1386 919.01 1386 2060 245.01 2060 177.76" style="fill:none"/><polygon points="2060 68.08 742.08 1386 809.34 1386 2060 135.34 2060 68.08" style="fill:none"/><polygon points="2060 945.5 1619.5 1386 1686.76 1386 2060 1012.75 2060 945.5" style="fill:none"/><polygon points="2060 0 2018.41 0 632.41 1386 699.66 1386 2060 25.66 2060 0" style="fill:none"/><polygon points="2060 1055.18 1729.18 1386 1796.43 1386 2060 1122.43 2060 1055.18" style="fill:none"/><polygon points="2060 506.79 1180.79 1386 1248.05 1386 2060 574.04 2060 506.79" style="fill:none"/><polygon points="1908.73 0 522.73 1386 589.98 1386 1975.98 0 1908.73 0" style="fill:none"/><polygon points="2060 616.47 1290.47 1386 1357.72 1386 2060 683.72 2060 616.47" style="fill:none"/><polygon points="2060 287.44 961.44 1386 1028.69 1386 2060 354.69 2060 287.44" style="fill:none"/><polygon points="2060 726.15 1400.15 1386 1467.4 1386 2060 793.4 2060 726.15" style="fill:none"/><polygon points="2060 397.12 1071.12 1386 1138.37 1386 2060 464.37 2060 397.12" style="fill:none"/><polygon points="1799.05 0 413.05 1386 480.3 1386 1866.3 0 1799.05 0" style="fill:none"/><polygon points="1689.37 0 303.37 1386 370.63 1386 1756.63 0 1689.37 0" style="fill:none"/><polygon points="1470.02 0 84.02 1386 151.27 1386 1537.27 0 1470.02 0" style="fill:none"/><polygon points="1579.7 0 193.7 1386 260.95 1386 1646.95 0 1579.7 0" style="fill:none"/><polygon points="1360.34 0 0 1360.34 0 1386 41.59 1386 1427.59 0 1360.34 0" style="fill:none"/><polygon points="1.79 0 0 1.79 0 44.21 44.21 0 1.79 0"/><polygon points="111.46 0 0 111.46 0 153.89 153.89 0 111.46 0"/><polygon points="221.14 0 0 221.14 0 263.57 263.57 0 221.14 0"/><polygon points="330.82 0 0 330.82 0 373.25 373.25 0 330.82 0"/><polygon points="440.5 0 0 440.5 0 482.92 482.92 0 440.5 0"/><polygon points="550.17 0 0 550.17 0 592.6 592.6 0 550.17 0"/><polygon points="659.85 0 0 659.85 0 702.28 702.28 0 659.85 0"/><polygon points="769.53 0 0 769.53 0 811.96 811.96 0 769.53 0"/><polygon points="879.21 0 0 879.21 0 921.63 921.63 0 879.21 0"/><polygon points="988.88 0 0 988.88 0 1031.31 1031.31 0 988.88 0"/><polygon points="1098.56 0 0 1098.56 0 1140.99 1140.99 0 1098.56 0"/><polygon points="1208.24 0 0 1208.24 0 1250.66 1250.66 0 1208.24 0"/><polygon points="1317.92 0 0 1317.92 0 1360.34 1360.34 0 1317.92 0"/><polygon points="1427.59 0 41.59 1386 84.02 1386 1470.02 0 1427.59 0"/><polygon points="1537.27 0 151.27 1386 193.7 1386 1579.7 0 1537.27 0"/><polygon points="1646.95 0 260.95 1386 303.37 1386 1689.37 0 1646.95 0"/><polygon points="1756.63 0 370.63 1386 413.05 1386 1799.05 0 1756.63 0"/><polygon points="1866.3 0 480.3 1386 522.73 1386 1908.73 0 1866.3 0"/><polygon points="1975.98 0 589.98 1386 632.41 1386 2018.41 0 1975.98 0"/><polygon points="2060 25.66 699.66 1386 742.08 1386 2060 68.08 2060 25.66"/><polygon points="2060 135.34 809.34 1386 851.76 1386 2060 177.76 2060 135.34"/><polygon points="2060 245.01 919.01 1386 961.44 1386 2060 287.44 2060 245.01"/><polygon points="2060 354.69 1028.69 1386 1071.12 1386 2060 397.12 2060 354.69"/><polygon points="2060 464.37 1138.37 1386 1180.79 1386 2060 506.79 2060 464.37"/><polygon points="2060 574.04 1248.05 1386 1290.47 1386 2060 616.47 2060 574.04"/><polygon points="2060 683.72 1357.72 1386 1400.15 1386 2060 726.15 2060 683.72"/><polygon points="2060 793.4 1467.4 1386 1509.83 1386 2060 835.83 2060 793.4"/><polygon points="2060 903.08 1577.08 1386 1619.5 1386 2060 945.5 2060 903.08"/><polygon points="2060 1012.75 1686.76 1386 1729.18 1386 2060 1055.18 2060 1012.75"/><polygon points="2060 1122.43 1796.43 1386 1838.86 1386 2060 1164.86 2060 1122.43"/><polygon points="2060 1232.11 1906.11 1386 1948.54 1386 2060 1274.54 2060 1232.11"/><polygon points="2060 1341.79 2015.79 1386 2058.21 1386 2060 1384.21 2060 1341.79"/></svg>