<?xml version="1.0" encoding="utf-8"?>
<!-- Generator: Adobe Illustrator 22.1.0, SVG Export Plug-In . SVG Version: 6.00 Build 0)  -->
<svg version="1.1" id="Layer_1" xmlns="http://www.w3.org/2000/svg" xmlns:xlink="http://www.w3.org/1999/xlink" x="0px" y="0px"
	 viewBox="0 0 32 32" style="enable-background:new 0 0 32 32;" xml:space="preserve">
<title>umbraco</title>
<path d="M0,16C0,7.4,7.2,0.4,16,0.4S32,7.4,32,16s-7.2,15.6-16,15.6S0,24.6,0,16z M15.6,21.3c-1.6,0-2.8-0.1-3.7-0.3
	c-1-0.2-1.6-0.8-2.1-1.6c-0.4-0.8-0.6-2.1-0.5-3.8c0-0.9,0.1-1.8,0.1-2.6c0.1-0.8,0.2-1.6,0.4-2.1l0.1-0.6v-0.1
	c0-0.1-0.1-0.3-0.3-0.3L7.7,9.8H7.6c-0.1,0-0.3,0.1-0.4,0.2c0,0.1-0.1,0.2-0.1,0.5c-0.1,0.6-0.2,1.2-0.4,2c-0.1,0.9-0.2,1.8-0.2,2.8
	c0,0-0.1,0.2,0,1.9c0.1,1.7,0.4,3,0.9,4.1c0.6,1,1.5,1.8,2.8,2.2c1.3,0.4,3.2,0.6,5.5,0.6h0.3c2.3,0,4.2-0.2,5.5-0.6
	c1.3-0.4,2.3-1.2,2.8-2.2c0.6-1.1,0.9-2.4,0.9-4.1c0.1-1.7,0-1.9,0-1.9c0-1-0.1-1.9-0.2-2.8c-0.1-0.9-0.2-1.4-0.4-2
	c-0.1-0.3-0.1-0.4-0.1-0.5c0-0.1-0.1-0.2-0.4-0.2h-0.1l-2.1,0.3c-0.1,0-0.3,0.1-0.3,0.3v0.1l0.1,0.6c0.1,0.6,0.2,1.3,0.4,2.1
	c0.1,0.9,0.1,1.7,0.1,2.6c0,1.7-0.1,2.9-0.5,3.8C21.7,20.3,21,20.8,20,21c-0.9,0.2-2.1,0.3-3.7,0.3L15.6,21.3z"/>
</svg>
